<mxfile host="Electron" agent="Mozilla/5.0 (X11; Linux x86_64) AppleWebKit/537.36 (KHTML, like Gecko) draw.io/26.1.1 Chrome/132.0.6834.210 Electron/34.3.2 Safari/537.36" version="26.1.1" pages="6">
  <diagram name="1" id="TUT96Deh3uyYbSw8oWv-">
    <mxGraphModel dx="830" dy="492" grid="1" gridSize="10" guides="1" tooltips="1" connect="1" arrows="1" fold="1" page="1" pageScale="1" pageWidth="400" pageHeight="160" math="0" shadow="0">
      <root>
        <mxCell id="vvGyEgP8zuIIcc9eeisb-0" />
        <mxCell id="vvGyEgP8zuIIcc9eeisb-1" parent="vvGyEgP8zuIIcc9eeisb-0" />
        <mxCell id="EquXxOVp9-vnU-ghKs0S-0" value="), }, ] not found" style="edgeStyle=orthogonalEdgeStyle;rounded=0;orthogonalLoop=1;jettySize=auto;html=1;exitX=0.5;exitY=0;exitDx=0;exitDy=0;entryX=0.5;entryY=0;entryDx=0;entryDy=0;fillColor=#dae8fc;strokeColor=#6c8ebf;" parent="vvGyEgP8zuIIcc9eeisb-1" source="vvGyEgP8zuIIcc9eeisb-2" target="vvGyEgP8zuIIcc9eeisb-8" edge="1">
          <mxGeometry relative="1" as="geometry" />
        </mxCell>
        <mxCell id="vvGyEgP8zuIIcc9eeisb-2" value="{" style="text;html=1;align=center;verticalAlign=middle;whiteSpace=wrap;rounded=0;fillColor=#dae8fc;strokeColor=#6c8ebf;fontSize=14;fontColor=#333333;" parent="vvGyEgP8zuIIcc9eeisb-1" vertex="1">
          <mxGeometry x="40" y="60" width="40" height="40" as="geometry" />
        </mxCell>
        <mxCell id="vvGyEgP8zuIIcc9eeisb-3" value="s" style="text;html=1;align=center;verticalAlign=middle;whiteSpace=wrap;rounded=0;fontSize=10;" parent="vvGyEgP8zuIIcc9eeisb-1" vertex="1">
          <mxGeometry x="40" y="100" width="240" height="20" as="geometry" />
        </mxCell>
        <mxCell id="vvGyEgP8zuIIcc9eeisb-5" value="[" style="text;html=1;align=center;verticalAlign=middle;whiteSpace=wrap;rounded=0;fillColor=#f5f5f5;strokeColor=#666666;fontSize=14;fontColor=#333333;" parent="vvGyEgP8zuIIcc9eeisb-1" vertex="1">
          <mxGeometry x="80" y="60" width="40" height="40" as="geometry" />
        </mxCell>
        <mxCell id="vvGyEgP8zuIIcc9eeisb-6" value=")" style="text;html=1;align=center;verticalAlign=middle;whiteSpace=wrap;rounded=0;fillColor=#f5f5f5;strokeColor=#666666;fontSize=14;fontColor=#333333;" parent="vvGyEgP8zuIIcc9eeisb-1" vertex="1">
          <mxGeometry x="160" y="60" width="40" height="40" as="geometry" />
        </mxCell>
        <mxCell id="vvGyEgP8zuIIcc9eeisb-7" value="]" style="text;html=1;align=center;verticalAlign=middle;whiteSpace=wrap;rounded=0;fillColor=#f5f5f5;strokeColor=#666666;fontSize=14;fontColor=#333333;" parent="vvGyEgP8zuIIcc9eeisb-1" vertex="1">
          <mxGeometry x="200" y="60" width="40" height="40" as="geometry" />
        </mxCell>
        <mxCell id="vvGyEgP8zuIIcc9eeisb-8" value="{" style="text;html=1;align=center;verticalAlign=middle;whiteSpace=wrap;rounded=0;fillColor=#dae8fc;strokeColor=#6c8ebf;fontSize=14;fontColor=#333333;" parent="vvGyEgP8zuIIcc9eeisb-1" vertex="1">
          <mxGeometry x="320" y="60" width="40" height="20" as="geometry" />
        </mxCell>
        <mxCell id="vvGyEgP8zuIIcc9eeisb-9" value="symbols" style="text;html=1;align=center;verticalAlign=middle;whiteSpace=wrap;rounded=0;fontSize=10;" parent="vvGyEgP8zuIIcc9eeisb-1" vertex="1">
          <mxGeometry x="320" y="80" width="40" height="20" as="geometry" />
        </mxCell>
        <mxCell id="NCxehxAxPrXCGWq_pstc-0" value="0" style="text;html=1;align=center;verticalAlign=middle;whiteSpace=wrap;rounded=0;fontSize=10;" parent="vvGyEgP8zuIIcc9eeisb-1" vertex="1">
          <mxGeometry x="300" y="60" width="20" height="20" as="geometry" />
        </mxCell>
        <mxCell id="VQzYNTxQ_YCKh1Uhq0uJ-0" value="}" style="text;html=1;align=center;verticalAlign=middle;whiteSpace=wrap;rounded=0;fillColor=#f5f5f5;strokeColor=#666666;fontSize=14;fontColor=#333333;" vertex="1" parent="vvGyEgP8zuIIcc9eeisb-1">
          <mxGeometry x="240" y="60" width="40" height="40" as="geometry" />
        </mxCell>
        <mxCell id="VQzYNTxQ_YCKh1Uhq0uJ-1" value="(" style="text;html=1;align=center;verticalAlign=middle;whiteSpace=wrap;rounded=0;fillColor=#f5f5f5;strokeColor=#666666;fontSize=14;fontColor=#333333;" vertex="1" parent="vvGyEgP8zuIIcc9eeisb-1">
          <mxGeometry x="120" y="60" width="40" height="40" as="geometry" />
        </mxCell>
      </root>
    </mxGraphModel>
  </diagram>
  <diagram name="2" id="u2_aCGZ_3soSpDEpRv33">
    <mxGraphModel dx="691" dy="410" grid="1" gridSize="10" guides="1" tooltips="1" connect="1" arrows="1" fold="1" page="1" pageScale="1" pageWidth="400" pageHeight="160" math="0" shadow="0">
      <root>
        <mxCell id="NyVdx_eHuI5nzHLB4yrw-0" />
        <mxCell id="NyVdx_eHuI5nzHLB4yrw-1" parent="NyVdx_eHuI5nzHLB4yrw-0" />
        <mxCell id="NyVdx_eHuI5nzHLB4yrw-2" value="), }, ] not found" style="edgeStyle=orthogonalEdgeStyle;rounded=0;orthogonalLoop=1;jettySize=auto;html=1;exitX=0.5;exitY=0;exitDx=0;exitDy=0;entryX=0.5;entryY=0;entryDx=0;entryDy=0;fillColor=#dae8fc;strokeColor=#6c8ebf;" edge="1" parent="NyVdx_eHuI5nzHLB4yrw-1" source="NyVdx_eHuI5nzHLB4yrw-5" target="NyVdx_eHuI5nzHLB4yrw-8">
          <mxGeometry relative="1" as="geometry" />
        </mxCell>
        <mxCell id="NyVdx_eHuI5nzHLB4yrw-3" value="{" style="text;html=1;align=center;verticalAlign=middle;whiteSpace=wrap;rounded=0;fillColor=#f5f5f5;strokeColor=#666666;fontSize=14;fontColor=#333333;" vertex="1" parent="NyVdx_eHuI5nzHLB4yrw-1">
          <mxGeometry x="40" y="60" width="40" height="40" as="geometry" />
        </mxCell>
        <mxCell id="NyVdx_eHuI5nzHLB4yrw-4" value="s" style="text;html=1;align=center;verticalAlign=middle;whiteSpace=wrap;rounded=0;fontSize=10;" vertex="1" parent="NyVdx_eHuI5nzHLB4yrw-1">
          <mxGeometry x="40" y="100" width="240" height="20" as="geometry" />
        </mxCell>
        <mxCell id="NyVdx_eHuI5nzHLB4yrw-5" value="[" style="text;html=1;align=center;verticalAlign=middle;whiteSpace=wrap;rounded=0;fillColor=#dae8fc;strokeColor=#6c8ebf;fontSize=14;fontColor=#333333;" vertex="1" parent="NyVdx_eHuI5nzHLB4yrw-1">
          <mxGeometry x="80" y="60" width="40" height="40" as="geometry" />
        </mxCell>
        <mxCell id="NyVdx_eHuI5nzHLB4yrw-6" value=")" style="text;html=1;align=center;verticalAlign=middle;whiteSpace=wrap;rounded=0;fillColor=#f5f5f5;strokeColor=#666666;fontSize=14;fontColor=#333333;" vertex="1" parent="NyVdx_eHuI5nzHLB4yrw-1">
          <mxGeometry x="160" y="60" width="40" height="40" as="geometry" />
        </mxCell>
        <mxCell id="NyVdx_eHuI5nzHLB4yrw-7" value="]" style="text;html=1;align=center;verticalAlign=middle;whiteSpace=wrap;rounded=0;fillColor=#f5f5f5;strokeColor=#666666;fontSize=14;fontColor=#333333;" vertex="1" parent="NyVdx_eHuI5nzHLB4yrw-1">
          <mxGeometry x="200" y="60" width="40" height="40" as="geometry" />
        </mxCell>
        <mxCell id="NyVdx_eHuI5nzHLB4yrw-8" value="[" style="text;html=1;align=center;verticalAlign=middle;whiteSpace=wrap;rounded=0;fillColor=#dae8fc;strokeColor=#6c8ebf;fontSize=14;fontColor=#333333;" vertex="1" parent="NyVdx_eHuI5nzHLB4yrw-1">
          <mxGeometry x="320" y="60" width="40" height="20" as="geometry" />
        </mxCell>
        <mxCell id="NyVdx_eHuI5nzHLB4yrw-9" value="symbols" style="text;html=1;align=center;verticalAlign=middle;whiteSpace=wrap;rounded=0;fontSize=10;" vertex="1" parent="NyVdx_eHuI5nzHLB4yrw-1">
          <mxGeometry x="320" y="100" width="40" height="20" as="geometry" />
        </mxCell>
        <mxCell id="NyVdx_eHuI5nzHLB4yrw-10" value="0" style="text;html=1;align=center;verticalAlign=middle;whiteSpace=wrap;rounded=0;fontSize=10;" vertex="1" parent="NyVdx_eHuI5nzHLB4yrw-1">
          <mxGeometry x="300" y="80" width="20" height="20" as="geometry" />
        </mxCell>
        <mxCell id="NyVdx_eHuI5nzHLB4yrw-11" value="}" style="text;html=1;align=center;verticalAlign=middle;whiteSpace=wrap;rounded=0;fillColor=#f5f5f5;strokeColor=#666666;fontSize=14;fontColor=#333333;" vertex="1" parent="NyVdx_eHuI5nzHLB4yrw-1">
          <mxGeometry x="240" y="60" width="40" height="40" as="geometry" />
        </mxCell>
        <mxCell id="NyVdx_eHuI5nzHLB4yrw-12" value="(" style="text;html=1;align=center;verticalAlign=middle;whiteSpace=wrap;rounded=0;fillColor=#f5f5f5;strokeColor=#666666;fontSize=14;fontColor=#333333;" vertex="1" parent="NyVdx_eHuI5nzHLB4yrw-1">
          <mxGeometry x="120" y="60" width="40" height="40" as="geometry" />
        </mxCell>
        <mxCell id="Htg_9CAl8AHesih8t99E-0" value="{" style="text;html=1;align=center;verticalAlign=middle;whiteSpace=wrap;rounded=0;fillColor=#f5f5f5;strokeColor=#666666;fontSize=14;fontColor=#333333;" vertex="1" parent="NyVdx_eHuI5nzHLB4yrw-1">
          <mxGeometry x="320" y="80" width="40" height="20" as="geometry" />
        </mxCell>
        <mxCell id="Htg_9CAl8AHesih8t99E-1" value="1" style="text;html=1;align=center;verticalAlign=middle;whiteSpace=wrap;rounded=0;fontSize=10;" vertex="1" parent="NyVdx_eHuI5nzHLB4yrw-1">
          <mxGeometry x="300" y="60" width="20" height="20" as="geometry" />
        </mxCell>
      </root>
    </mxGraphModel>
  </diagram>
  <diagram name="3" id="BKYrbEOQGmD6alri2j_j">
    <mxGraphModel dx="830" dy="492" grid="1" gridSize="10" guides="1" tooltips="1" connect="1" arrows="1" fold="1" page="1" pageScale="1" pageWidth="400" pageHeight="180" math="0" shadow="0">
      <root>
        <mxCell id="v-FyUeDBXIeCn0xMHzSL-0" />
        <mxCell id="v-FyUeDBXIeCn0xMHzSL-1" parent="v-FyUeDBXIeCn0xMHzSL-0" />
        <mxCell id="v-FyUeDBXIeCn0xMHzSL-2" value="), }, ] not found" style="edgeStyle=orthogonalEdgeStyle;rounded=0;orthogonalLoop=1;jettySize=auto;html=1;exitX=0.5;exitY=0;exitDx=0;exitDy=0;entryX=0.5;entryY=0;entryDx=0;entryDy=0;fillColor=#dae8fc;strokeColor=#6c8ebf;" edge="1" parent="v-FyUeDBXIeCn0xMHzSL-1" source="v-FyUeDBXIeCn0xMHzSL-12" target="v-FyUeDBXIeCn0xMHzSL-8">
          <mxGeometry relative="1" as="geometry" />
        </mxCell>
        <mxCell id="v-FyUeDBXIeCn0xMHzSL-3" value="{" style="text;html=1;align=center;verticalAlign=middle;whiteSpace=wrap;rounded=0;fillColor=#f5f5f5;strokeColor=#666666;fontSize=14;fontColor=#333333;" vertex="1" parent="v-FyUeDBXIeCn0xMHzSL-1">
          <mxGeometry x="40" y="60" width="40" height="40" as="geometry" />
        </mxCell>
        <mxCell id="v-FyUeDBXIeCn0xMHzSL-4" value="s" style="text;html=1;align=center;verticalAlign=middle;whiteSpace=wrap;rounded=0;fontSize=10;" vertex="1" parent="v-FyUeDBXIeCn0xMHzSL-1">
          <mxGeometry x="40" y="100" width="240" height="20" as="geometry" />
        </mxCell>
        <mxCell id="v-FyUeDBXIeCn0xMHzSL-5" value="[" style="text;html=1;align=center;verticalAlign=middle;whiteSpace=wrap;rounded=0;fillColor=#f5f5f5;strokeColor=#666666;fontSize=14;fontColor=#333333;" vertex="1" parent="v-FyUeDBXIeCn0xMHzSL-1">
          <mxGeometry x="80" y="60" width="40" height="40" as="geometry" />
        </mxCell>
        <mxCell id="v-FyUeDBXIeCn0xMHzSL-6" value=")" style="text;html=1;align=center;verticalAlign=middle;whiteSpace=wrap;rounded=0;fillColor=#f5f5f5;strokeColor=#666666;fontSize=14;fontColor=#333333;" vertex="1" parent="v-FyUeDBXIeCn0xMHzSL-1">
          <mxGeometry x="160" y="60" width="40" height="40" as="geometry" />
        </mxCell>
        <mxCell id="v-FyUeDBXIeCn0xMHzSL-7" value="]" style="text;html=1;align=center;verticalAlign=middle;whiteSpace=wrap;rounded=0;fillColor=#f5f5f5;strokeColor=#666666;fontSize=14;fontColor=#333333;" vertex="1" parent="v-FyUeDBXIeCn0xMHzSL-1">
          <mxGeometry x="200" y="60" width="40" height="40" as="geometry" />
        </mxCell>
        <mxCell id="v-FyUeDBXIeCn0xMHzSL-8" value="(" style="text;html=1;align=center;verticalAlign=middle;whiteSpace=wrap;rounded=0;fillColor=#dae8fc;strokeColor=#6c8ebf;fontSize=14;fontColor=#333333;" vertex="1" parent="v-FyUeDBXIeCn0xMHzSL-1">
          <mxGeometry x="320" y="60" width="40" height="20" as="geometry" />
        </mxCell>
        <mxCell id="v-FyUeDBXIeCn0xMHzSL-9" value="symbols" style="text;html=1;align=center;verticalAlign=middle;whiteSpace=wrap;rounded=0;fontSize=10;" vertex="1" parent="v-FyUeDBXIeCn0xMHzSL-1">
          <mxGeometry x="320" y="120" width="40" height="20" as="geometry" />
        </mxCell>
        <mxCell id="v-FyUeDBXIeCn0xMHzSL-10" value="2" style="text;html=1;align=center;verticalAlign=middle;whiteSpace=wrap;rounded=0;fontSize=10;" vertex="1" parent="v-FyUeDBXIeCn0xMHzSL-1">
          <mxGeometry x="300" y="60" width="20" height="20" as="geometry" />
        </mxCell>
        <mxCell id="v-FyUeDBXIeCn0xMHzSL-11" value="}" style="text;html=1;align=center;verticalAlign=middle;whiteSpace=wrap;rounded=0;fillColor=#f5f5f5;strokeColor=#666666;fontSize=14;fontColor=#333333;" vertex="1" parent="v-FyUeDBXIeCn0xMHzSL-1">
          <mxGeometry x="240" y="60" width="40" height="40" as="geometry" />
        </mxCell>
        <mxCell id="v-FyUeDBXIeCn0xMHzSL-12" value="(" style="text;html=1;align=center;verticalAlign=middle;whiteSpace=wrap;rounded=0;fillColor=#dae8fc;strokeColor=#6c8ebf;fontSize=14;fontColor=#333333;" vertex="1" parent="v-FyUeDBXIeCn0xMHzSL-1">
          <mxGeometry x="120" y="60" width="40" height="40" as="geometry" />
        </mxCell>
        <mxCell id="v-FyUeDBXIeCn0xMHzSL-13" value="{" style="text;html=1;align=center;verticalAlign=middle;whiteSpace=wrap;rounded=0;fillColor=#f5f5f5;strokeColor=#666666;fontSize=14;fontColor=#333333;" vertex="1" parent="v-FyUeDBXIeCn0xMHzSL-1">
          <mxGeometry x="320" y="100" width="40" height="20" as="geometry" />
        </mxCell>
        <mxCell id="v-FyUeDBXIeCn0xMHzSL-14" value="1" style="text;html=1;align=center;verticalAlign=middle;whiteSpace=wrap;rounded=0;fontSize=10;" vertex="1" parent="v-FyUeDBXIeCn0xMHzSL-1">
          <mxGeometry x="300" y="80" width="20" height="20" as="geometry" />
        </mxCell>
        <mxCell id="kLt7ehEc1bctzdeoLlGL-0" value="0" style="text;html=1;align=center;verticalAlign=middle;whiteSpace=wrap;rounded=0;fontSize=10;" vertex="1" parent="v-FyUeDBXIeCn0xMHzSL-1">
          <mxGeometry x="300" y="100" width="20" height="20" as="geometry" />
        </mxCell>
        <mxCell id="kLt7ehEc1bctzdeoLlGL-1" value="[" style="text;html=1;align=center;verticalAlign=middle;whiteSpace=wrap;rounded=0;fillColor=#f5f5f5;strokeColor=#666666;fontSize=14;fontColor=#333333;" vertex="1" parent="v-FyUeDBXIeCn0xMHzSL-1">
          <mxGeometry x="320" y="80" width="40" height="20" as="geometry" />
        </mxCell>
      </root>
    </mxGraphModel>
  </diagram>
  <diagram name="4" id="qWO5Neh8pbd2ZLdWyN-6">
    <mxGraphModel dx="830" dy="492" grid="1" gridSize="10" guides="1" tooltips="1" connect="1" arrows="1" fold="1" page="1" pageScale="1" pageWidth="400" pageHeight="180" math="0" shadow="0">
      <root>
        <mxCell id="AAuibJWm-0RyjIxBqLBK-0" />
        <mxCell id="AAuibJWm-0RyjIxBqLBK-1" parent="AAuibJWm-0RyjIxBqLBK-0" />
        <mxCell id="AAuibJWm-0RyjIxBqLBK-2" value="), }, ] found" style="edgeStyle=orthogonalEdgeStyle;rounded=0;orthogonalLoop=1;jettySize=auto;html=1;exitX=0.5;exitY=0;exitDx=0;exitDy=0;entryX=0.5;entryY=0;entryDx=0;entryDy=0;fillColor=#dae8fc;strokeColor=#6c8ebf;" edge="1" parent="AAuibJWm-0RyjIxBqLBK-1" source="AAuibJWm-0RyjIxBqLBK-6" target="AAuibJWm-0RyjIxBqLBK-8">
          <mxGeometry relative="1" as="geometry" />
        </mxCell>
        <mxCell id="AAuibJWm-0RyjIxBqLBK-3" value="{" style="text;html=1;align=center;verticalAlign=middle;whiteSpace=wrap;rounded=0;fillColor=#f5f5f5;strokeColor=#666666;fontSize=14;fontColor=#333333;" vertex="1" parent="AAuibJWm-0RyjIxBqLBK-1">
          <mxGeometry x="40" y="60" width="40" height="40" as="geometry" />
        </mxCell>
        <mxCell id="AAuibJWm-0RyjIxBqLBK-4" value="s" style="text;html=1;align=center;verticalAlign=middle;whiteSpace=wrap;rounded=0;fontSize=10;" vertex="1" parent="AAuibJWm-0RyjIxBqLBK-1">
          <mxGeometry x="40" y="100" width="240" height="20" as="geometry" />
        </mxCell>
        <mxCell id="AAuibJWm-0RyjIxBqLBK-5" value="[" style="text;html=1;align=center;verticalAlign=middle;whiteSpace=wrap;rounded=0;fillColor=#f5f5f5;strokeColor=#666666;fontSize=14;fontColor=#333333;" vertex="1" parent="AAuibJWm-0RyjIxBqLBK-1">
          <mxGeometry x="80" y="60" width="40" height="40" as="geometry" />
        </mxCell>
        <mxCell id="AAuibJWm-0RyjIxBqLBK-6" value=")" style="text;html=1;align=center;verticalAlign=middle;whiteSpace=wrap;rounded=0;fillColor=#dae8fc;strokeColor=#6c8ebf;fontSize=14;fontColor=#333333;" vertex="1" parent="AAuibJWm-0RyjIxBqLBK-1">
          <mxGeometry x="160" y="60" width="40" height="40" as="geometry" />
        </mxCell>
        <mxCell id="AAuibJWm-0RyjIxBqLBK-7" value="]" style="text;html=1;align=center;verticalAlign=middle;whiteSpace=wrap;rounded=0;fillColor=#f5f5f5;strokeColor=#666666;fontSize=14;fontColor=#333333;" vertex="1" parent="AAuibJWm-0RyjIxBqLBK-1">
          <mxGeometry x="200" y="60" width="40" height="40" as="geometry" />
        </mxCell>
        <mxCell id="AAuibJWm-0RyjIxBqLBK-8" value="(" style="text;html=1;align=center;verticalAlign=middle;whiteSpace=wrap;rounded=0;fillColor=#d5e8d4;strokeColor=#82b366;fontSize=14;fontColor=#333333;" vertex="1" parent="AAuibJWm-0RyjIxBqLBK-1">
          <mxGeometry x="320" y="60" width="40" height="20" as="geometry" />
        </mxCell>
        <mxCell id="AAuibJWm-0RyjIxBqLBK-9" value="symbols" style="text;html=1;align=center;verticalAlign=middle;whiteSpace=wrap;rounded=0;fontSize=10;" vertex="1" parent="AAuibJWm-0RyjIxBqLBK-1">
          <mxGeometry x="320" y="120" width="40" height="20" as="geometry" />
        </mxCell>
        <mxCell id="AAuibJWm-0RyjIxBqLBK-10" value="2" style="text;html=1;align=center;verticalAlign=middle;whiteSpace=wrap;rounded=0;fontSize=10;" vertex="1" parent="AAuibJWm-0RyjIxBqLBK-1">
          <mxGeometry x="300" y="60" width="20" height="20" as="geometry" />
        </mxCell>
        <mxCell id="AAuibJWm-0RyjIxBqLBK-11" value="}" style="text;html=1;align=center;verticalAlign=middle;whiteSpace=wrap;rounded=0;fillColor=#f5f5f5;strokeColor=#666666;fontSize=14;fontColor=#333333;" vertex="1" parent="AAuibJWm-0RyjIxBqLBK-1">
          <mxGeometry x="240" y="60" width="40" height="40" as="geometry" />
        </mxCell>
        <mxCell id="AAuibJWm-0RyjIxBqLBK-12" value="(" style="text;html=1;align=center;verticalAlign=middle;whiteSpace=wrap;rounded=0;fillColor=#f5f5f5;strokeColor=#666666;fontSize=14;fontColor=#333333;" vertex="1" parent="AAuibJWm-0RyjIxBqLBK-1">
          <mxGeometry x="120" y="60" width="40" height="40" as="geometry" />
        </mxCell>
        <mxCell id="AAuibJWm-0RyjIxBqLBK-13" value="{" style="text;html=1;align=center;verticalAlign=middle;whiteSpace=wrap;rounded=0;fillColor=#f5f5f5;strokeColor=#666666;fontSize=14;fontColor=#333333;" vertex="1" parent="AAuibJWm-0RyjIxBqLBK-1">
          <mxGeometry x="320" y="100" width="40" height="20" as="geometry" />
        </mxCell>
        <mxCell id="AAuibJWm-0RyjIxBqLBK-14" value="1" style="text;html=1;align=center;verticalAlign=middle;whiteSpace=wrap;rounded=0;fontSize=10;" vertex="1" parent="AAuibJWm-0RyjIxBqLBK-1">
          <mxGeometry x="300" y="80" width="20" height="20" as="geometry" />
        </mxCell>
        <mxCell id="AAuibJWm-0RyjIxBqLBK-15" value="0" style="text;html=1;align=center;verticalAlign=middle;whiteSpace=wrap;rounded=0;fontSize=10;" vertex="1" parent="AAuibJWm-0RyjIxBqLBK-1">
          <mxGeometry x="300" y="100" width="20" height="20" as="geometry" />
        </mxCell>
        <mxCell id="AAuibJWm-0RyjIxBqLBK-16" value="[" style="text;html=1;align=center;verticalAlign=middle;whiteSpace=wrap;rounded=0;fillColor=#f5f5f5;strokeColor=#666666;fontSize=14;fontColor=#333333;" vertex="1" parent="AAuibJWm-0RyjIxBqLBK-1">
          <mxGeometry x="320" y="80" width="40" height="20" as="geometry" />
        </mxCell>
      </root>
    </mxGraphModel>
  </diagram>
  <diagram name="5" id="Qa9JULdpJcKLaygJFY8s">
    <mxGraphModel dx="576" dy="342" grid="1" gridSize="10" guides="1" tooltips="1" connect="1" arrows="1" fold="1" page="1" pageScale="1" pageWidth="400" pageHeight="160" math="0" shadow="0">
      <root>
        <mxCell id="RuOzWV2k_LplBXgbYurg-0" />
        <mxCell id="RuOzWV2k_LplBXgbYurg-1" parent="RuOzWV2k_LplBXgbYurg-0" />
        <mxCell id="RuOzWV2k_LplBXgbYurg-2" value="), }, ] found" style="edgeStyle=orthogonalEdgeStyle;rounded=0;orthogonalLoop=1;jettySize=auto;html=1;exitX=0.5;exitY=0;exitDx=0;exitDy=0;entryX=0.5;entryY=0;entryDx=0;entryDy=0;fillColor=#dae8fc;strokeColor=#6c8ebf;" edge="1" parent="RuOzWV2k_LplBXgbYurg-1" source="RuOzWV2k_LplBXgbYurg-7" target="RuOzWV2k_LplBXgbYurg-8">
          <mxGeometry relative="1" as="geometry" />
        </mxCell>
        <mxCell id="RuOzWV2k_LplBXgbYurg-3" value="{" style="text;html=1;align=center;verticalAlign=middle;whiteSpace=wrap;rounded=0;fillColor=#f5f5f5;strokeColor=#666666;fontSize=14;fontColor=#333333;" vertex="1" parent="RuOzWV2k_LplBXgbYurg-1">
          <mxGeometry x="40" y="60" width="40" height="40" as="geometry" />
        </mxCell>
        <mxCell id="RuOzWV2k_LplBXgbYurg-4" value="s" style="text;html=1;align=center;verticalAlign=middle;whiteSpace=wrap;rounded=0;fontSize=10;" vertex="1" parent="RuOzWV2k_LplBXgbYurg-1">
          <mxGeometry x="40" y="100" width="240" height="20" as="geometry" />
        </mxCell>
        <mxCell id="RuOzWV2k_LplBXgbYurg-5" value="[" style="text;html=1;align=center;verticalAlign=middle;whiteSpace=wrap;rounded=0;fillColor=#f5f5f5;strokeColor=#666666;fontSize=14;fontColor=#333333;" vertex="1" parent="RuOzWV2k_LplBXgbYurg-1">
          <mxGeometry x="80" y="60" width="40" height="40" as="geometry" />
        </mxCell>
        <mxCell id="RuOzWV2k_LplBXgbYurg-6" value=")" style="text;html=1;align=center;verticalAlign=middle;whiteSpace=wrap;rounded=0;fillColor=#f5f5f5;strokeColor=#666666;fontSize=14;fontColor=#333333;" vertex="1" parent="RuOzWV2k_LplBXgbYurg-1">
          <mxGeometry x="160" y="60" width="40" height="40" as="geometry" />
        </mxCell>
        <mxCell id="RuOzWV2k_LplBXgbYurg-7" value="]" style="text;html=1;align=center;verticalAlign=middle;whiteSpace=wrap;rounded=0;fillColor=#dae8fc;strokeColor=#6c8ebf;fontSize=14;fontColor=#333333;" vertex="1" parent="RuOzWV2k_LplBXgbYurg-1">
          <mxGeometry x="200" y="60" width="40" height="40" as="geometry" />
        </mxCell>
        <mxCell id="RuOzWV2k_LplBXgbYurg-8" value="[" style="text;html=1;align=center;verticalAlign=middle;whiteSpace=wrap;rounded=0;fillColor=#d5e8d4;strokeColor=#82b366;fontSize=14;fontColor=#333333;" vertex="1" parent="RuOzWV2k_LplBXgbYurg-1">
          <mxGeometry x="320" y="60" width="40" height="20" as="geometry" />
        </mxCell>
        <mxCell id="RuOzWV2k_LplBXgbYurg-9" value="symbols" style="text;html=1;align=center;verticalAlign=middle;whiteSpace=wrap;rounded=0;fontSize=10;" vertex="1" parent="RuOzWV2k_LplBXgbYurg-1">
          <mxGeometry x="320" y="100" width="40" height="20" as="geometry" />
        </mxCell>
        <mxCell id="RuOzWV2k_LplBXgbYurg-10" value="1" style="text;html=1;align=center;verticalAlign=middle;whiteSpace=wrap;rounded=0;fontSize=10;" vertex="1" parent="RuOzWV2k_LplBXgbYurg-1">
          <mxGeometry x="300" y="60" width="20" height="20" as="geometry" />
        </mxCell>
        <mxCell id="RuOzWV2k_LplBXgbYurg-11" value="}" style="text;html=1;align=center;verticalAlign=middle;whiteSpace=wrap;rounded=0;fillColor=#f5f5f5;strokeColor=#666666;fontSize=14;fontColor=#333333;" vertex="1" parent="RuOzWV2k_LplBXgbYurg-1">
          <mxGeometry x="240" y="60" width="40" height="40" as="geometry" />
        </mxCell>
        <mxCell id="RuOzWV2k_LplBXgbYurg-12" value="(" style="text;html=1;align=center;verticalAlign=middle;whiteSpace=wrap;rounded=0;fillColor=#f5f5f5;strokeColor=#666666;fontSize=14;fontColor=#333333;" vertex="1" parent="RuOzWV2k_LplBXgbYurg-1">
          <mxGeometry x="120" y="60" width="40" height="40" as="geometry" />
        </mxCell>
        <mxCell id="RuOzWV2k_LplBXgbYurg-14" value="0" style="text;html=1;align=center;verticalAlign=middle;whiteSpace=wrap;rounded=0;fontSize=10;" vertex="1" parent="RuOzWV2k_LplBXgbYurg-1">
          <mxGeometry x="300" y="80" width="20" height="20" as="geometry" />
        </mxCell>
        <mxCell id="RuOzWV2k_LplBXgbYurg-16" value="{" style="text;html=1;align=center;verticalAlign=middle;whiteSpace=wrap;rounded=0;fillColor=#f5f5f5;strokeColor=#666666;fontSize=14;fontColor=#333333;" vertex="1" parent="RuOzWV2k_LplBXgbYurg-1">
          <mxGeometry x="320" y="80" width="40" height="20" as="geometry" />
        </mxCell>
      </root>
    </mxGraphModel>
  </diagram>
  <diagram name="6" id="24sw3KY0D1mL_U4iVuj6">
    <mxGraphModel dx="830" dy="492" grid="1" gridSize="10" guides="1" tooltips="1" connect="1" arrows="1" fold="1" page="1" pageScale="1" pageWidth="400" pageHeight="160" math="0" shadow="0">
      <root>
        <mxCell id="8B67HlUuTSWrCWWa8MDJ-0" />
        <mxCell id="8B67HlUuTSWrCWWa8MDJ-1" parent="8B67HlUuTSWrCWWa8MDJ-0" />
        <mxCell id="8B67HlUuTSWrCWWa8MDJ-2" value="), }, ] found" style="edgeStyle=orthogonalEdgeStyle;rounded=0;orthogonalLoop=1;jettySize=auto;html=1;exitX=0.5;exitY=0;exitDx=0;exitDy=0;entryX=0.5;entryY=0;entryDx=0;entryDy=0;fillColor=#dae8fc;strokeColor=#6c8ebf;" edge="1" parent="8B67HlUuTSWrCWWa8MDJ-1" source="8B67HlUuTSWrCWWa8MDJ-11" target="8B67HlUuTSWrCWWa8MDJ-8">
          <mxGeometry relative="1" as="geometry" />
        </mxCell>
        <mxCell id="8B67HlUuTSWrCWWa8MDJ-3" value="{" style="text;html=1;align=center;verticalAlign=middle;whiteSpace=wrap;rounded=0;fillColor=#f5f5f5;strokeColor=#666666;fontSize=14;fontColor=#333333;" vertex="1" parent="8B67HlUuTSWrCWWa8MDJ-1">
          <mxGeometry x="40" y="60" width="40" height="40" as="geometry" />
        </mxCell>
        <mxCell id="8B67HlUuTSWrCWWa8MDJ-4" value="s" style="text;html=1;align=center;verticalAlign=middle;whiteSpace=wrap;rounded=0;fontSize=10;" vertex="1" parent="8B67HlUuTSWrCWWa8MDJ-1">
          <mxGeometry x="40" y="100" width="240" height="20" as="geometry" />
        </mxCell>
        <mxCell id="8B67HlUuTSWrCWWa8MDJ-5" value="[" style="text;html=1;align=center;verticalAlign=middle;whiteSpace=wrap;rounded=0;fillColor=#f5f5f5;strokeColor=#666666;fontSize=14;fontColor=#333333;" vertex="1" parent="8B67HlUuTSWrCWWa8MDJ-1">
          <mxGeometry x="80" y="60" width="40" height="40" as="geometry" />
        </mxCell>
        <mxCell id="8B67HlUuTSWrCWWa8MDJ-6" value=")" style="text;html=1;align=center;verticalAlign=middle;whiteSpace=wrap;rounded=0;fillColor=#f5f5f5;strokeColor=#666666;fontSize=14;fontColor=#333333;" vertex="1" parent="8B67HlUuTSWrCWWa8MDJ-1">
          <mxGeometry x="160" y="60" width="40" height="40" as="geometry" />
        </mxCell>
        <mxCell id="8B67HlUuTSWrCWWa8MDJ-7" value="]" style="text;html=1;align=center;verticalAlign=middle;whiteSpace=wrap;rounded=0;fontSize=14;fillColor=#f5f5f5;fontColor=#333333;strokeColor=#666666;" vertex="1" parent="8B67HlUuTSWrCWWa8MDJ-1">
          <mxGeometry x="200" y="60" width="40" height="40" as="geometry" />
        </mxCell>
        <mxCell id="8B67HlUuTSWrCWWa8MDJ-8" value="{" style="text;html=1;align=center;verticalAlign=middle;whiteSpace=wrap;rounded=0;fillColor=#d5e8d4;strokeColor=#82b366;fontSize=14;fontColor=#333333;" vertex="1" parent="8B67HlUuTSWrCWWa8MDJ-1">
          <mxGeometry x="320" y="60" width="40" height="20" as="geometry" />
        </mxCell>
        <mxCell id="8B67HlUuTSWrCWWa8MDJ-9" value="symbols" style="text;html=1;align=center;verticalAlign=middle;whiteSpace=wrap;rounded=0;fontSize=10;" vertex="1" parent="8B67HlUuTSWrCWWa8MDJ-1">
          <mxGeometry x="320" y="80" width="40" height="20" as="geometry" />
        </mxCell>
        <mxCell id="8B67HlUuTSWrCWWa8MDJ-10" value="0" style="text;html=1;align=center;verticalAlign=middle;whiteSpace=wrap;rounded=0;fontSize=10;" vertex="1" parent="8B67HlUuTSWrCWWa8MDJ-1">
          <mxGeometry x="300" y="60" width="20" height="20" as="geometry" />
        </mxCell>
        <mxCell id="8B67HlUuTSWrCWWa8MDJ-11" value="}" style="text;html=1;align=center;verticalAlign=middle;whiteSpace=wrap;rounded=0;fillColor=#dae8fc;strokeColor=#6c8ebf;fontSize=14;fontColor=#333333;" vertex="1" parent="8B67HlUuTSWrCWWa8MDJ-1">
          <mxGeometry x="240" y="60" width="40" height="40" as="geometry" />
        </mxCell>
        <mxCell id="8B67HlUuTSWrCWWa8MDJ-12" value="(" style="text;html=1;align=center;verticalAlign=middle;whiteSpace=wrap;rounded=0;fillColor=#f5f5f5;strokeColor=#666666;fontSize=14;fontColor=#333333;" vertex="1" parent="8B67HlUuTSWrCWWa8MDJ-1">
          <mxGeometry x="120" y="60" width="40" height="40" as="geometry" />
        </mxCell>
      </root>
    </mxGraphModel>
  </diagram>
</mxfile>
